<?xml version="1.0"?>
<svg xmlns="http://www.w3.org/2000/svg" xmlns:xlink="http://www.w3.org/1999/xlink" xmlns:svgjs="http://svgjs.com/svgjs" version="1.1" width="512" height="512" x="0" y="0" viewBox="0 0 330 330" style="enable-background:new 0 0 512 512" xml:space="preserve" class=""><g>
<g xmlns="http://www.w3.org/2000/svg">
	<path d="M165,0C74.019,0,0,74.019,0,165s74.019,165,165,165c90.982,0,165-74.019,165-165S255.982,0,165,0z M165,300   c-74.439,0-135-60.561-135-135S90.561,30,165,30c74.439,0,135,60.561,135,135S239.439,300,165,300z" fill="#ffffff" data-original="#000000" style="" class=""/>
	<path d="M239.247,90.754c-5.857-5.858-15.355-5.858-21.213,0l-53.033,53.033l-53.033-53.033c-5.857-5.858-15.355-5.858-21.213,0   c-5.858,5.858-5.858,15.355,0,21.213L143.788,165l-53.033,53.033c-5.858,5.858-5.858,15.355,0,21.213   c2.929,2.929,6.768,4.394,10.606,4.394c3.839,0,7.678-1.464,10.606-4.394l53.033-53.033l53.033,53.033   c2.929,2.929,6.768,4.394,10.606,4.394c3.839,0,7.678-1.464,10.607-4.394c5.858-5.858,5.858-15.355,0-21.213L186.214,165   l53.033-53.033C245.105,106.109,245.105,96.612,239.247,90.754z" fill="#ffffff" data-original="#000000" style="" class=""/>
</g>
<g xmlns="http://www.w3.org/2000/svg">
</g>
<g xmlns="http://www.w3.org/2000/svg">
</g>
<g xmlns="http://www.w3.org/2000/svg">
</g>
<g xmlns="http://www.w3.org/2000/svg">
</g>
<g xmlns="http://www.w3.org/2000/svg">
</g>
<g xmlns="http://www.w3.org/2000/svg">
</g>
<g xmlns="http://www.w3.org/2000/svg">
</g>
<g xmlns="http://www.w3.org/2000/svg">
</g>
<g xmlns="http://www.w3.org/2000/svg">
</g>
<g xmlns="http://www.w3.org/2000/svg">
</g>
<g xmlns="http://www.w3.org/2000/svg">
</g>
<g xmlns="http://www.w3.org/2000/svg">
</g>
<g xmlns="http://www.w3.org/2000/svg">
</g>
<g xmlns="http://www.w3.org/2000/svg">
</g>
<g xmlns="http://www.w3.org/2000/svg">
</g>
</g></svg>
